<svg width="16" height="16" viewBox="0 0 16 16" fill="none" xmlns="http://www.w3.org/2000/svg">
<path fill-rule="evenodd" clip-rule="evenodd" d="M3 8C3.00009 7.03778 3.27782 6.09603 3.79987 5.28774C4.32191 4.47945 5.0661 3.83896 5.94313 3.44313C6.82016 3.0473 7.79278 2.91294 8.74427 3.05617C9.69577 3.1994 10.5857 3.61414 11.3074 4.25062C12.029 4.8871 12.5517 5.71829 12.8126 6.64444C13.0736 7.5706 13.0617 8.55238 12.7786 9.47198C12.4954 10.3916 11.9529 11.2099 11.2161 11.8289C10.4794 12.4478 9.57967 12.841 8.625 12.9613V9.25H9.875C10.0408 9.25 10.1997 9.18415 10.3169 9.06694C10.4342 8.94973 10.5 8.79076 10.5 8.625C10.5 8.45924 10.4342 8.30027 10.3169 8.18306C10.1997 8.06585 10.0408 8 9.875 8H8.625V6.75C8.625 6.58424 8.69085 6.42527 8.80806 6.30806C8.92527 6.19085 9.08424 6.125 9.25 6.125H9.5625C9.72826 6.125 9.88723 6.05915 10.0044 5.94194C10.1217 5.82473 10.1875 5.66576 10.1875 5.5C10.1875 5.33424 10.1217 5.17527 10.0044 5.05806C9.88723 4.94085 9.72826 4.875 9.5625 4.875H9.25C8.75272 4.875 8.27581 5.07254 7.92417 5.42417C7.57254 5.77581 7.375 6.25272 7.375 6.75V8H6.125C5.95924 8 5.80027 8.06585 5.68306 8.18306C5.56585 8.30027 5.5 8.45924 5.5 8.625C5.5 8.79076 5.56585 8.94973 5.68306 9.06694C5.80027 9.18415 5.95924 9.25 6.125 9.25H7.375V12.9613C6.16669 12.8089 5.05551 12.2208 4.25 11.3073C3.44449 10.3939 3.00002 9.21788 3 8ZM8 14.25C11.4519 14.25 14.25 11.4519 14.25 8C14.25 4.54813 11.4519 1.75 8 1.75C4.54813 1.75 1.75 4.54813 1.75 8C1.75 11.4519 4.54813 14.25 8 14.25Z" fill="white"/>
</svg>
