<?xml version="1.0" encoding="UTF-8"?>
<svg xmlns="http://www.w3.org/2000/svg" id="Layer_1" data-name="Layer 1" viewBox="0 0 24 24">
  <path d="m24,10.737c0-1.316-1.023-2.737-2.677-2.737h-1.461c.139-.14.267-.293.384-.459.558-.791.808-2.468.744-4.986-.013-.504-.249-.962-.646-1.256-.378-.28-.854-.368-1.301-.243-1.164.325-3.075,1.158-4.037,2.06-.506-.902-1.188-1.824-1.722-2.496-.624-.788-1.943-.788-2.567,0-.532.67-1.211,1.588-1.717,2.486-.96-.896-2.842-1.711-4.048-2.05-.446-.123-.919-.037-1.296.241-.398.294-.634.753-.646,1.258-.064,2.517.185,4.194.741,4.985.117.166.245.32.383.46h-1.457c-1.653,0-2.677,1.42-2.677,2.737,0,4.412,7.495,7.807,10.179,8.882-.738.368-1.526.929-1.954,1.755-.294.568-.272,1.23.058,1.773.325.535.894.854,1.521.854h4.392c.627,0,1.195-.319,1.521-.854.33-.542.352-1.205.058-1.773-.301-.58-.779-1.03-1.293-1.374h2.018c1.378,0,2.5,1.122,2.5,2.5,0,.276.224.5.5.5s.5-.224.5-.5c0-1.93-1.57-3.5-3.5-3.5h-1.227c3.269-1.474,8.727-4.499,8.727-8.263Zm-4.688-8.718c.048-.013.093-.019.135-.019.139,0,.245.06.303.103.148.11.236.284.241.478.057,2.201-.135,3.808-.561,4.384-.819,1.106-1.985,1.036-1.985,1.036-.501-.009-.99-.188-1.4-.515-1.138-.907-1.371-2.269-.581-3.389.503-.713,2.447-1.685,3.849-2.077Zm-7.812-.778c.243-.306.758-.306,1.001,0,.594.749,1.38,1.818,1.85,2.775-.447.903-.464,1.892-.081,2.779-.512.757-1.355,1.206-2.27,1.206-.92,0-1.767-.454-2.278-1.218.389-.89.378-1.881-.066-2.78.471-.953,1.252-2.016,1.844-2.762Zm-6.931,5.724c-.428-.575-.616-2.184-.559-4.385.005-.194.092-.369.241-.478.057-.042.162-.102.298-.102.042,0,.086.005.133.019,1.418.398,3.374,1.371,3.87,2.076h0c.779,1.109.531,2.472-.616,3.391-.403.322-.877.501-1.37.514,0,0-1.181.06-1.996-1.035Zm10.294,15.662c-.145.237-.387.373-.667.373h-4.392c-.279,0-.522-.136-.667-.373-.147-.242-.156-.539-.024-.793.623-1.203,2.442-1.712,2.887-1.821.444.108,2.264.618,2.887,1.821.132.255.123.551-.024.793Zm-1.655-3.844c.979-1.295,2.51-3.533,2.786-5.201.045-.272-.139-.53-.412-.575-.277-.048-.53.139-.575.412-.28,1.69-2.173,4.234-3.001,5.281-.802-1.042-2.623-3.549-3.018-5.309-.061-.269-.326-.438-.597-.378-.27.06-.439.328-.378.597.382,1.705,1.869,3.912,2.81,5.185-2.241-.882-9.823-4.156-9.823-8.058,0-.854.627-1.737,1.677-1.737h18.646c1.05,0,1.677.883,1.677,1.737,0,3.885-7.514,7.147-9.793,8.046Z"/>
</svg>
