<svg width="16" height="16" viewBox="0 0 16 16" fill="none" xmlns="http://www.w3.org/2000/svg">
<path d="M11.75 2.375C12.2473 2.375 12.7242 2.57254 13.0758 2.92417C13.4275 3.27581 13.625 3.75272 13.625 4.25V11.75C13.625 12.2473 13.4275 12.7242 13.0758 13.0758C12.7242 13.4275 12.2473 13.625 11.75 13.625H4.25C3.75272 13.625 3.27581 13.4275 2.92417 13.0758C2.57254 12.7242 2.375 12.2473 2.375 11.75V4.25C2.375 3.75272 2.57254 3.27581 2.92417 2.92417C3.27581 2.57254 3.75272 2.375 4.25 2.375H11.75ZM11.75 3.625H4.25C4.08424 3.625 3.92527 3.69085 3.80806 3.80806C3.69085 3.92527 3.625 4.08424 3.625 4.25V11.75C3.625 11.9158 3.69085 12.0747 3.80806 12.1919C3.92527 12.3092 4.08424 12.375 4.25 12.375H11.75C11.9158 12.375 12.0747 12.3092 12.1919 12.1919C12.3092 12.0747 12.375 11.9158 12.375 11.75V4.25C12.375 4.08424 12.3092 3.92527 12.1919 3.80806C12.0747 3.69085 11.9158 3.625 11.75 3.625ZM5.5 6.75C5.65308 6.75002 5.80084 6.80622 5.91523 6.90795C6.02963 7.00967 6.10271 7.14984 6.12063 7.30188L6.125 7.375V10.5C6.12482 10.6593 6.06383 10.8125 5.95447 10.9284C5.84511 11.0442 5.69565 11.1139 5.53663 11.1232C5.3776 11.1326 5.22101 11.0808 5.09885 10.9786C4.9767 10.8763 4.89819 10.7313 4.87937 10.5731L4.875 10.5V7.375C4.875 7.20924 4.94085 7.05027 5.05806 6.93306C5.17527 6.81585 5.33424 6.75 5.5 6.75ZM7.375 6.125C7.52137 6.12498 7.66311 6.17633 7.7755 6.2701C7.88789 6.36387 7.9638 6.49412 7.99 6.63812C8.11577 6.56519 8.24579 6.49987 8.37937 6.4425C8.79625 6.26438 9.42062 6.16625 9.98438 6.34312C10.28 6.43687 10.5769 6.61188 10.7969 6.91C10.9937 7.17562 11.1 7.49875 11.1213 7.86188L11.125 8V10.5C11.1248 10.6593 11.0638 10.8125 10.9545 10.9284C10.8451 11.0442 10.6957 11.1139 10.5366 11.1232C10.3776 11.1326 10.221 11.0808 10.0989 10.9786C9.9767 10.8763 9.89819 10.7313 9.87938 10.5731L9.875 10.5V8C9.875 7.79375 9.825 7.6975 9.7925 7.65312C9.74585 7.59509 9.68157 7.55385 9.60938 7.53562C9.39187 7.46688 9.07875 7.50313 8.87062 7.59188C8.55812 7.72563 8.27188 7.93563 8.07688 8.13L8 8.2125V10.5C7.99982 10.6593 7.93883 10.8125 7.82947 10.9284C7.72011 11.0442 7.57065 11.1139 7.41163 11.1232C7.2526 11.1326 7.09601 11.0808 6.97385 10.9786C6.8517 10.8763 6.77319 10.7313 6.75437 10.5731L6.75 10.5V6.75C6.75 6.58424 6.81585 6.42527 6.93306 6.30806C7.05027 6.19085 7.20924 6.125 7.375 6.125ZM5.5 4.875C5.66576 4.875 5.82473 4.94085 5.94194 5.05806C6.05915 5.17527 6.125 5.33424 6.125 5.5C6.125 5.66576 6.05915 5.82473 5.94194 5.94194C5.82473 6.05915 5.66576 6.125 5.5 6.125C5.33424 6.125 5.17527 6.05915 5.05806 5.94194C4.94085 5.82473 4.875 5.66576 4.875 5.5C4.875 5.33424 4.94085 5.17527 5.05806 5.05806C5.17527 4.94085 5.33424 4.875 5.5 4.875Z" fill="white"/>
</svg>
