<svg width="20" height="20" viewBox="0 0 20 20" fill="none" xmlns="http://www.w3.org/2000/svg">
<path fill-rule="evenodd" clip-rule="evenodd" d="M11.25 4.375C11.4158 4.375 11.5747 4.44085 11.6919 4.55806C11.8092 4.67527 11.875 4.83424 11.875 5C11.8754 5.5762 12.0745 6.13463 12.4389 6.58099C12.8033 7.02735 13.3105 7.3343 13.875 7.45C14.0374 7.48315 14.1801 7.57948 14.2715 7.71779C14.3629 7.85609 14.3957 8.02505 14.3625 8.1875C14.3294 8.34995 14.233 8.49257 14.0947 8.58399C13.9564 8.67542 13.7874 8.70815 13.625 8.675C12.9737 8.5419 12.3697 8.23772 11.875 7.79375V13.125C11.875 13.7431 11.6917 14.3473 11.3483 14.8612C11.005 15.3751 10.5169 15.7756 9.94589 16.0121C9.37487 16.2486 8.74653 16.3105 8.14034 16.19C7.53415 16.0694 6.97733 15.7717 6.54029 15.3347C6.10325 14.8977 5.80563 14.3408 5.68505 13.7347C5.56447 13.1285 5.62635 12.5001 5.86288 11.9291C6.0994 11.3581 6.49994 10.87 7.01384 10.5267C7.52775 10.1833 8.13193 10 8.75 10C8.91576 10 9.07473 10.0658 9.19194 10.1831C9.30915 10.3003 9.375 10.4592 9.375 10.625C9.375 10.7908 9.30915 10.9497 9.19194 11.0669C9.07473 11.1842 8.91576 11.25 8.75 11.25C8.37916 11.25 8.01665 11.36 7.70831 11.566C7.39997 11.772 7.15964 12.0649 7.01773 12.4075C6.87581 12.7501 6.83868 13.1271 6.91103 13.4908C6.98338 13.8545 7.16195 14.1886 7.42418 14.4508C7.6864 14.713 8.02049 14.8916 8.38421 14.964C8.74792 15.0363 9.12492 14.9992 9.46753 14.8573C9.81014 14.7154 10.103 14.475 10.309 14.1667C10.515 13.8584 10.625 13.4958 10.625 13.125V5C10.625 4.83424 10.6908 4.67527 10.8081 4.55806C10.9253 4.44085 11.0842 4.375 11.25 4.375Z" fill="white"/>
</svg>
